<?xml version="1.0" encoding="utf-8"?>
<!-- Generator: Adobe Illustrator 26.0.1, SVG Export Plug-In . SVG Version: 6.00 Build 0)  -->
<svg version="1.1" id="Layer_1" xmlns="http://www.w3.org/2000/svg" xmlns:xlink="http://www.w3.org/1999/xlink" x="0px" y="0px"
	 viewBox="0 0 332.1 80.2" style="enable-background:new 0 0 332.1 80.2;" xml:space="preserve">
<style type="text/css">
	.st0{fill:#467AA4;}
	.st1{fill:#FFFFFF;}
	.st2{fill:#ED2024;}
	.st3{fill:#3B54A5;}
	.st4{fill:none;stroke:#000000;stroke-width:5;stroke-miterlimit:10;}
	.st5{opacity:0.75;}
	.st6{opacity:0.2;}
</style>
<g>
	<g>
		<g>
			<rect x="247.7" y="-0.5" class="st0" width="84.3" height="81.2"/>
		</g>
		<g>
			<rect x="0.1" y="-0.5" class="st0" width="84.3" height="81.2"/>
		</g>
		<g>
			<rect x="84.3" y="-0.5" class="st1" width="18.5" height="81.2"/>
		</g>
		<g>
			<rect x="229.1" y="-0.5" class="st1" width="18.5" height="81.2"/>
		</g>
		<g>
			<rect x="102.9" y="-0.5" class="st2" width="26.2" height="81.2"/>
		</g>
		<g>
			<rect x="203.5" y="-0.5" class="st2" width="25.6" height="81.2"/>
		</g>
		<g>
			<rect x="129.1" y="-0.5" class="st3" width="74.5" height="81.2"/>
		</g>
	</g>
</g>
<g>
	<g>
		<g>
			<ellipse class="st4" cx="172" cy="569.9" rx="78.9" ry="57.3"/>
		</g>
		<g class="st5">
			<ellipse class="st4" cx="172" cy="569.9" rx="78.9" ry="57.3"/>
		</g>
	</g>
	<g>
		<g>
			<ellipse class="st4" cx="172" cy="569.9" rx="78.9" ry="57.3"/>
		</g>
		<g class="st5">
			<ellipse class="st4" cx="172" cy="569.9" rx="78.9" ry="57.3"/>
		</g>
	</g>
</g>
<g>
	<g>
		<g>
			<path class="st0" d="M250.6,176.8l-2.1,419.3l73.3-66.1c6.5-6.1,10.3-14.6,10.3-23.5V176.8H250.6z"/>
		</g>
		<g>
			<path class="st0" d="M11.3,176.8v317.9c0,17,7.1,33.3,19.7,44.8l65,56.7l-3.2-419.4H11.3L11.3,176.8z"/>
		</g>
		<g>
			<path class="st1" d="M92.8,176.8v413.9c0,3,2.4,5.4,5.4,5.4h12.5V176.8H92.8z"/>
		</g>
		<g>
			<path class="st1" d="M232.7,176.8v419.3h14.8c1.7,0,3.1-1.4,3.1-3.1V176.8H232.7z"/>
		</g>
		<g>
			<rect x="110.7" y="176.8" class="st2" width="25.3" height="419.3"/>
		</g>
		<g>
			<rect x="208" y="176.8" class="st2" width="24.8" height="419.3"/>
		</g>
		<g>
			<rect x="136" y="176.8" class="st3" width="72" height="419.3"/>
		</g>
	</g>
</g>
<path class="st6" d="M250.9,176.7h-17.8H233h-24.7h-72H111H93.1H11.6v317.9c0,17,7.1,33.3,19.7,44.8l65,56.7l0-0.6
	c0.7,0.3,1.4,0.5,2.2,0.5H111h25.3h72H233h0.1h14.7c0.4,0,0.7-0.1,1-0.2l0,0.2l0.4-0.3c0.5-0.3,0.9-0.6,1.2-1.1l71.7-64.6
	c6.5-6.1,10.3-14.6,10.3-23.5V176.7H250.9z"/>
<rect x="0.1" y="-1.1" class="st6" width="331.8" height="82.5"/>
</svg>
